<?xml version="1.0" encoding="utf-8"?>
<!-- Generator: Adobe Illustrator 27.5.0, SVG Export Plug-In . SVG Version: 6.00 Build 0)  -->
<svg version="1.1" xmlns="http://www.w3.org/2000/svg" xmlns:xlink="http://www.w3.org/1999/xlink" x="0px" y="0px"
	 viewBox="0 0 500 500" style="enable-background:new 0 0 500 500;" xml:space="preserve">
<g id="Floor">
	
		<ellipse id="Floor_00000047769112578939715910000017943112611013847185_" style="fill:#FAFAFA;" cx="250" cy="351.006" rx="230.258" ry="136.078"/>
</g>
<g id="Plants">
	<g id="Plants_00000092435997218678792290000004305946293950723510_">
		<g>
			<g>
				<path style="fill:#BA68C8;" d="M162.957,416.944c-0.179-0.112-0.297-0.287-0.321-0.481c-3.426-26.742-29.196-46.032-40.2-54.27
					c-1.779-1.331-3.184-2.383-4.088-3.158c-4.044-3.469-5.878-8.035-4.903-12.213c0.877-3.765,4.002-6.706,8.572-8.068
					c11.181-3.336,29.185,9.203,40.983,28.535c16.533,27.094,9.625,47.13,9.553,47.329c-0.075,0.21-0.264,0.37-0.501,0.426
					l-8.484,1.999c-0.098,0.022-0.198,0.027-0.295,0.014C163.163,417.042,163.053,417.003,162.957,416.944z M161.713,367.911
					c-11.46-18.778-28.681-31.03-39.206-27.897c-4.133,1.232-6.838,3.756-7.62,7.106c-0.866,3.722,0.802,7.82,4.467,10.962
					c0.866,0.743,2.254,1.782,4.01,3.096c11.038,8.263,36.745,27.509,40.63,54.384l7.261-1.71
					C172.06,411.163,176.755,392.565,161.713,367.911z"/>
			</g>
			<g>
				<path style="fill:#BA68C8;" d="M168.094,415.92c0.033,0.004,0.066,0.008,0.1,0.007c0.407,0.006,0.735-0.286,0.732-0.653
					c-0.18-31.245-24.969-61.283-41.284-67.439c-0.38-0.145-0.807,0.015-0.959,0.353c-0.15,0.338,0.034,0.727,0.411,0.87
					c16.132,6.087,40.186,36.565,40.358,66.196C167.454,415.59,167.734,415.872,168.094,415.92z"/>
			</g>
		</g>
		<g>
			<g>
				<path style="fill:#BA68C8;" d="M171.759,415.058c0.105,0.014,0.216,0.008,0.323-0.022l5.746-1.592
					c0.232-0.064,0.411-0.227,0.479-0.437c0.096-0.297,9.525-30.174,0.96-70.363c-4.363-20.473-18.136-40.418-32.751-47.427
					c-7.028-3.366-13.858-3.774-20.305-1.204c-3.645,1.453-5.894,3.586-6.687,6.34c-2.191,7.614,6.872,18.916,16.465,30.883
					c6.713,8.371,13.654,17.028,16.917,24.68c0.147,0.345,0.575,0.52,0.954,0.397c0.38-0.126,0.568-0.506,0.421-0.851
					c-3.332-7.817-10.333-16.547-17.102-24.99c-9.382-11.702-18.245-22.753-16.228-29.762c0.686-2.384,2.608-4.178,5.88-5.482
					c6.011-2.398,12.408-2.011,19.011,1.159c14.245,6.83,27.692,26.379,31.976,46.482c8.013,37.601,0.172,66.04-0.829,69.41
					l-5.369,1.487c-0.386,0.107-0.598,0.478-0.471,0.829C171.244,414.848,171.486,415.021,171.759,415.058z"/>
			</g>
			<g>
				<path style="fill:#BA68C8;" d="M172.698,396.043c0.017,0.002,0.036,0.005,0.053,0.006c0.406,0.028,0.754-0.245,0.779-0.61
					c3.106-48.343-27.831-86.963-36.859-93.582c-0.318-0.232-0.783-0.195-1.036,0.087c-0.253,0.283-0.201,0.701,0.118,0.935
					c8.898,6.523,39.377,44.636,36.304,92.456C172.035,395.685,172.318,395.992,172.698,396.043z"/>
			</g>
		</g>
	</g>
</g>
<g id="Shadows">
	
		<ellipse id="Shadow_00000129180225829557783370000006665762765437917594_" style="fill:#E0E0E0;" cx="223.497" cy="412.296" rx="71.484" ry="41.271"/>
	<path id="Shadow_00000100353799698515856110000018229642585793855920_" style="fill:#E0E0E0;" d="M389.637,401.866l-101.421,58.556
		c-3.054,1.763-8.389,1.542-11.915-0.494l-15.377-8.878c-3.527-2.036-3.91-5.116-0.855-6.879l101.421-58.555
		c3.054-1.763,8.389-1.542,11.915,0.494l15.377,8.878C392.308,397.022,392.691,400.102,389.637,401.866z"/>
</g>
<g id="Circle_00000033343972632988765780000006429948821044777635_">
	<g id="Circle">
		<circle style="fill:#BA68C8;" cx="232.145" cy="154.381" r="133.908"/>
		<circle style="opacity:0.8;fill:#FFFFFF;" cx="232.145" cy="154.381" r="133.908"/>
	</g>
</g>
<g id="Character">
	<g id="Character_10_">
		<g id="Bottom_00000183962605795566333790000014428572661160105145_">
			<g>
				<path style="fill:#FFBDA7;" d="M234.484,377.245l-2.168-18.923l22.815-2.66c0,0-0.778,14.965-0.587,21.826
					c0.09,3.233,2.366,9.298,2.366,9.298s-8.957,4.875-13.644,2.949c-4.688-1.925-7.844-9.469-7.744-10.857L234.484,377.245z"/>
				<path style="fill:#263238;" d="M283.254,409.527c0.318,0.013,0.492,3.034-1.295,4.474c-2.063,1.662-8.568,4.784-16.262,3.464
					c-7.694-1.32-11.787-3.908-14.779-6.653c-2.991-2.745-7.183-6.615-10.651-7.535c-3.221-0.855-7.521-3.695-8.521-4.753
					c-1-1.058-0.677-5.574-0.677-5.574L283.254,409.527z"/>
				<path id="XMLID_00000011731936586295004940000003443162750948642695_" style="fill:#455A64;" d="M234.287,375.438
					c0,0-0.42,0.206-0.661,1.245c-0.287,1.237-0.687,4.849-1.279,6.874c-0.822,2.814-1.528,8.621-1.193,10.954
					c0.335,2.333,6.399,5.363,9.732,6.803c3.406,1.471,7.297,4.377,10.693,7.448c3.514,3.178,11.036,6.637,16.078,6.8
					c5.967,0.192,12.759-1.496,14.408-4.235c2.04-3.389,3.586-7.358-5.093-11.858c-1.643-0.852-7.384-4.608-9.338-5.965
					c-5.286-3.67-8.976-6.992-11.23-13.205c-0.264-0.726-0.538-1.53-1.198-1.92c-0.506-0.299-1.13-0.285-1.713-0.225
					c-1.481,0.151-7.391,0.738-8.759,1.333c-1.21,0.526-2.919,1.125-2.955,2.665c-0.012,0.536,0.12,1.064,0.272,1.577
					c0.094,0.318,0.16,0.74-0.118,0.915c-0.264,0.165-0.596-0.048-0.818-0.266c-0.893-0.877-1.529-1.98-2.27-2.991
					c-0.397-0.542-1.662-2.273-2.172-2.709c-0.464-0.396-1.067-0.608-1.475-1.053C234.68,377.061,234.284,376.16,234.287,375.438z"
					/>
				<path style="fill:#37474F;" d="M251.578,408.762c-1.492-1.349-3.08-2.658-4.681-3.836l0.001-0.008
					c0,0,10.148,6.813,14.465,4.074c2.781-1.764,1.583-4.09,1.547-4.819c-0.037-0.73,9.724-5.48,12.366-5.693v0
					c0.716,0.439,1.308,0.815,1.696,0.99c6.796,3.068,7.572,6.709,6.245,11.195c-1.649,2.738-7.752,5.392-15.461,5.087
					C262.714,415.551,255.092,411.939,251.578,408.762z"/>
				<path style="fill:#37474F;" d="M262.266,402.025c5.411,2.444,3.025,3.391,1.476,3.552c-1.549,0.162-10.589-5.677-16.056-10.423
					c-5.703-4.95-10.042-11.462-12.161-13.281c-0.79-0.678-1.636-1.506-2.388-2.278c0.193-1.22,0.354-2.331,0.489-2.913
					c0.242-1.039,0.662-1.244,0.662-1.244s0.393,1.623,0.909,2.186c0.408,0.445,1.012,0.657,1.475,1.053
					c0.511,0.436,1.776,2.167,2.172,2.709c0.741,1.012,1.377,2.115,2.27,2.991C245.673,390.737,256.854,399.581,262.266,402.025z"/>
				<g>
					<g>
						<path style="fill:#263238;" d="M263.383,404.743c-0.122-0.005-0.242-0.05-0.34-0.138c-0.225-0.201-0.247-0.55-0.046-0.778
							c1.628-1.862,9.164-6.136,13.192-5.526c0.299,0.044,0.504,0.325,0.459,0.625c-0.044,0.3-0.29,0.502-0.618,0.465
							c-3.762-0.561-10.928,3.691-12.218,5.167C263.7,404.687,263.541,404.749,263.383,404.743z"/>
					</g>
					<g>
						<path style="fill:#263238;" d="M258.704,401.565c-0.121-0.005-0.241-0.05-0.34-0.138c-0.225-0.202-0.245-0.55-0.046-0.778
							c1.627-1.861,9.16-6.132,13.192-5.525c0.298,0.044,0.504,0.326,0.459,0.625c-0.043,0.301-0.313,0.509-0.618,0.465
							c-3.764-0.556-10.927,3.689-12.218,5.165C259.021,401.508,258.862,401.571,258.704,401.565z"/>
					</g>
					<g>
						<path style="fill:#263238;" d="M254.017,398.544c-0.121-0.005-0.241-0.05-0.34-0.138c-0.225-0.201-0.245-0.55-0.046-0.778
							c1.629-1.862,9.164-6.14,13.192-5.525c0.298,0.044,0.504,0.325,0.458,0.626c-0.043,0.3-0.308,0.509-0.618,0.465
							c-3.764-0.561-10.928,3.689-12.218,5.165C254.334,398.487,254.175,398.55,254.017,398.544z"/>
					</g>
					<g>
						<path style="fill:#263238;" d="M249.699,395.135c-0.122-0.004-0.242-0.05-0.34-0.138c-0.226-0.201-0.245-0.549-0.046-0.778
							c1.627-1.863,9.179-6.134,13.192-5.525c0.298,0.044,0.504,0.326,0.459,0.625c-0.044,0.301-0.31,0.508-0.618,0.465
							c-3.759-0.557-10.927,3.689-12.217,5.164C250.016,395.078,249.857,395.141,249.699,395.135z"/>
					</g>
					<g>
						<path style="fill:#263238;" d="M245.47,391.729c-0.118-0.004-0.236-0.048-0.333-0.133c-0.229-0.198-0.254-0.547-0.058-0.777
							c2.241-2.643,10.094-6.152,14.121-5.544c0.298,0.044,0.504,0.326,0.459,0.625c-0.043,0.301-0.311,0.501-0.618,0.465
							c-3.626-0.545-11.147,2.828-13.136,5.171C245.793,391.671,245.63,391.735,245.47,391.729z"/>
					</g>
				</g>
			</g>
			<g>
				<path style="fill:#FFBDA7;" d="M196.841,385.103l4.909-23.347l-22.394-3.403l-0.156,23.009c0,0-1.654,6.201-0.375,8.318
					c1.278,2.117,14.734,4.245,15.952,2.818C195.995,391.072,196.841,385.103,196.841,385.103z"/>
				<path style="fill:#263238;" d="M194.932,421.847c-0.542,5.232-1.579,8.621-3.754,11.471c-2.176,2.85-6.091,3.365-9.983,1.998
					c-3.892-1.367-8.827-4.378-9.776-9.057c-0.948-4.68-0.6-7.77,0.482-12.554L194.932,421.847z"/>
				<path id="XMLID_00000022539366103459188760000003854238515609261699_" style="fill:#455A64;" d="M179.199,381.363
					c-1.622-0.074-1.147,4.036-1.85,11.092c-0.76,7.632-4.052,13.636-5.188,19.759c-1.298,6.996-1.011,10.223,1.562,14.848
					c2.572,4.625,12.108,9.985,17.128,4.385c4.092-4.566,4.47-10.118,4.392-17.265c-0.082-7.388-0.203-12.593,0.344-18.128
					c0.523-5.291,2.637-10.192,1.255-10.95c-0.139,0.769-1.469,6.135-2.377,6.056c-0.057-0.69-0.017-1.323,0.06-2.009
					c0.067-0.597,0.037-1.262-0.376-1.771c-0.417-0.514-1.968-1.146-2.62-1.341c-1.581-0.474-4.404-1.057-6.017-1.38
					c-0.803-0.161-1.61-0.291-2.42-0.378c-0.657-0.07-1.431-0.111-2.061,0.025c-0.387,0.084-0.749,0.289-0.904,0.62
					c-0.115,0.244-0.106,0.529-0.116,0.802c-0.019,0.492-0.107,0.976-0.259,1.437c-0.067,0.203-0.237,0.441-0.466,0.363
					c-0.186-0.064-0.253-0.285-0.247-0.461C179.065,386.207,179.148,381.814,179.199,381.363z"/>
				<path style="fill:#37474F;" d="M172.608,410.232c-0.197,1.008-1.417,7.692,0.57,9.156c2.15,1.585,3.566-3.616,3.566-3.616
					s5.219-0.832,12.618,3.044c-0.429,1.057,0.589,4.83,2.681,4.304c2.078-0.522,3.19-8.222,3.204-8.323
					c0.048,6.85-0.423,12.216-4.396,16.649c-5.02,5.6-14.556,0.24-17.128-4.385c-2.573-4.625-2.86-7.852-1.562-14.848
					C172.292,411.513,172.443,410.859,172.608,410.232z"/>
				<path style="fill:#37474F;" d="M177.314,416.297c-0.133,2.569-2.89,1.372-2.87-2.275c0.02-3.647,1.803-12.515,2.455-18.483
					c0.394-8.581,0.677-14.251,2.3-14.177c-0.01,0.087-0.011,0.174-0.019,0.261c0,0-0.125,4.888-0.142,5.443
					c-0.245,5.242-0.221,15.423-0.905,20.162C177.45,411.967,177.447,413.729,177.314,416.297z"/>
				<path style="fill:#37474F;" d="M188.492,418.642c0.629-2.464,1.143-4.119,1.892-8.844c0.744-4.69,3.388-14.089,4.695-19.142
					c0.43-0.832,1.761-5.554,1.761-5.554c1.125,0.317,0.043,4.819-0.464,6.925c-0.507,2.107-1.128,4.365-1.758,7.387
					c-1.626,5.958-1.707,14.882-2.759,18.312C190.809,421.157,187.863,421.107,188.492,418.642z"/>
				<g>
					<g>
						<path style="fill:#263238;" d="M189.512,419.043c-0.075-0.015-0.147-0.044-0.216-0.084c-0.057-0.036-5.824-3.458-12.419-2.641
							c-0.325,0.038-0.645-0.174-0.718-0.474c-0.075-0.301,0.129-0.577,0.452-0.617c7.056-0.875,13.027,2.677,13.28,2.83
							c0.287,0.174,0.389,0.517,0.223,0.766C189.99,419.011,189.747,419.092,189.512,419.043z"/>
					</g>
					<g>
						<path style="fill:#263238;" d="M191.08,413.618c-0.067-0.014-0.133-0.038-0.197-0.074c-0.064-0.036-6.558-3.629-13.905-2.951
							c-0.325,0.025-0.639-0.192-0.704-0.495c-0.063-0.302,0.15-0.572,0.476-0.602c7.771-0.712,14.41,2.967,14.69,3.123
							c0.294,0.167,0.408,0.507,0.254,0.762C191.574,413.581,191.324,413.669,191.08,413.618z"/>
					</g>
					<g>
						<path style="fill:#263238;" d="M177.577,405.336c-0.226-0.047-0.425-0.209-0.495-0.427c-0.093-0.299,0.085-0.59,0.403-0.65
							c7.341-1.383,14.378,2.815,14.676,2.996c0.289,0.174,0.389,0.516,0.224,0.766c-0.165,0.248-0.536,0.302-0.818,0.135
							c-0.067-0.04-6.904-4.111-13.735-2.816C177.746,405.356,177.66,405.353,177.577,405.336z"/>
					</g>
					<g>
						<path style="fill:#263238;" d="M178.187,400.384c-0.222-0.047-0.418-0.204-0.49-0.417c-0.101-0.299,0.073-0.592,0.388-0.657
							c8.08-1.663,14.696,2.799,14.973,2.989c0.277,0.19,0.355,0.536,0.172,0.774c-0.182,0.237-0.562,0.276-0.831,0.086
							c-0.061-0.043-6.427-4.319-13.947-2.774C178.363,400.404,178.273,400.402,178.187,400.384z"/>
					</g>
					<g>
						<path style="fill:#263238;" d="M178.898,394.823c-0.218-0.046-0.413-0.2-0.488-0.41c-0.105-0.296,0.064-0.592,0.378-0.662
							c7.576-1.669,14.772,2.953,15.074,3.154c0.282,0.183,0.367,0.529,0.192,0.771c-0.174,0.243-0.544,0.294-0.827,0.104
							c-0.07-0.045-7.022-4.508-14.057-2.958C179.079,394.842,178.987,394.842,178.898,394.823z"/>
					</g>
				</g>
			</g>
			<g>
				<path id="XMLID_00000008830628801148857020000001447530597022490522_" style="fill:#37474F;" d="M184.529,207.022
					c-1.912,20.748-2.861,28.616-3.271,57.674c-0.146,10.29-0.914,17.258-0.865,27.55c0.014,2.918-0.83,11.622-1.163,17.771
					c-0.249,4.612-1.736,17.816-1.562,27.035c0.113,6.005,0,10.124-0.116,15.356c-0.05,2.255-1.122,4.387-1.29,6.636
					c-0.091,1.211-0.02,2.461,0.322,3.631c0.345,1.183,1.308,1.963,1.691,3.031c0.559,1.556,0.101,3.911,0.119,5.593
					c0,0,13.49,5.788,21.814,2.672c0.37-1.497,0.453-3.97,1.267-5.211c0.581-0.886,1.976-1.406,2.704-2.286
					c0.768-0.929,1.332-2.028,1.613-3.202c0.392-1.638,0.254-3.35,0.378-5.03c0.292-3.962,2.027-7.649,3.235-11.434
					c3.256-10.2,2.502-20.984,4.456-31.404c2.637-14.069,5.8-22.962,7.262-32.978c1.462-10.015,5.988,19.84,5.988,19.845
					c0.259,1.697-0.134,3.737-0.176,5.448c-0.088,3.552,0.049,7.04-0.354,10.55c-0.893,7.791-0.566,15.721,0.975,23.41
					c0.81,4.044,1.506,6.826,1.35,10.959c-0.092,2.425-0.479,4.574,0.485,6.801c0.694,1.602,1.67,1.987,2.533,3.469
					c0.355,0.61,0.439,5.472,0.818,5.701c0,0,13.887,7.091,22.51-0.308c0.099-1.417-0.068-4.219,0.494-5.477
					c1.484-1.627,2.351-2.922,2.489-5.355c0.129-2.286-0.584-3.944-0.628-6.234c-0.055-2.809,0.375-5.6,0.637-8.397
					c0.374-3.989,0.84-5.721,1.364-10.784c0.239-2.312,0.589-5.062,0.82-10.93c0.225-5.743,0.775-13.096,0.865-18.854
					c0.354-22.645-0.418-65.546-0.781-95.25H184.529z"/>
				<path style="fill:#263238;" d="M199.969,216.753c0.141,23.636-11.424,30.475-17.11,30.475
					C182.859,247.228,197.592,241.598,199.969,216.753z"/>
				<path style="fill:#263238;" d="M226.604,241.947l-6.085,44.635c0.2-1.375,0.4-2.754,0.605-4.156
					c1.462-10.016,5.988,19.845,5.988,19.845l-1.324-19.528c-0.362-6.105-0.038-12.232,0.966-18.265l3.68-19.184
					c9.52-2.709,13.337-10.695,13.337-10.695C238.618,239.785,226.604,241.947,226.604,241.947z"/>
			</g>
			<path style="fill:#263238;" d="M178.171,372.099c3.779,2.995,14.731,5.484,22.186,2.642l1.449-6.505
				c-5.629,2.001-17.272,0.857-23.568-3.064L178.171,372.099z"/>
			<path style="fill:#263238;" d="M232.75,369.364c2.555,2.619,15.645,4.214,22.542-0.019l0.455-6.521
				c-5.23,3.053-18.644,3.133-23.822,0.084L232.75,369.364z"/>
			<g>
				<path style="fill:#263238;" d="M181.124,270.042c0,0-1.355,28.719-1.256,30.838c0.099,2.119,17.108,6.626,17.495,5.276
					c0.645-2.248,0.435-7.249,1.552-31.368C186.141,273.197,181.124,270.042,181.124,270.042z"/>
				<path d="M196.587,283.102c-0.465-0.156-0.97-0.104-1.453-0.112c-0.565-0.01-1.129-0.031-1.692-0.074
					c-1.192-0.092-2.379-0.27-3.549-0.53c-1.322-0.294-2.627-0.693-3.896-1.181c-1.035-0.398-2.016-0.938-3.051-1.327
					c-0.098-0.036-0.112,0.156-0.049,0.203c0.984,0.726,2.149,1.222,3.266,1.673c1.051,0.425,2.126,0.767,3.222,1.038
					c1.166,0.288,2.349,0.494,3.54,0.616c0.595,0.061,1.193,0.101,1.791,0.119c0.565,0.018,1.374,0.143,1.882-0.154
					C196.676,283.326,196.683,283.134,196.587,283.102z"/>
				<path d="M189.857,279.095c-0.15-0.298-0.266-0.483-0.597-0.52c-0.27-0.03-0.552,0.042-0.773,0.209
					c-0.209,0.158-0.347,0.396-0.377,0.663c-0.05,0.456,0.182,0.875,0.561,1.09c0.328,0.186,0.79,0.211,1.101-0.028
					c0.205-0.158,0.261-0.411,0.262-0.667C190.033,279.586,189.971,279.321,189.857,279.095z M189.573,279.986
					c-0.168,0.238-0.535,0.294-0.773,0.155c-0.395-0.23-0.321-1.013,0.16-1.069c0.151-0.018,0.31,0.016,0.431,0.112
					C189.596,279.346,189.743,279.746,189.573,279.986z"/>
			</g>
		</g>
		<g id="Top_00000124126290393183102800000012047655796536139139_">
			<g id="Arm_00000007428848796822328460000005957090982473395608_">
				<g>
					<path style="fill:#FFBDA7;" d="M343.835,117.136c-1.056-0.226-2.252,0.583-3.464,1.769c0.511-0.938,0.813-1.737,0.69-2.192
						c-0.367-1.364-1.438-1.824-3.711,0.205c-2.274,2.029-7.831,7.428-13.093,9.056c-0.947,0.293-2.765,1.125-3.744,0.734
						c0,0,0,0,0,0l0,0c-1.349-0.539-0.211-2.475,0.257-3.296c0.449-0.786,0.846-1.601,1.19-2.438
						c0.384-0.936,0.704-1.921,0.698-2.932c-0.006-1.011-0.38-2.061-1.174-2.687c-0.428-0.337-1.01-0.53-1.365-0.037
						c-1.415,1.958-2.898,3.865-4.323,5.815c-1.352,1.849-2.84,3.715-3.846,5.778c-1.158,2.374-2.579,5.197-4.276,7.304
						c-1.278,1.627-4.302,4.435-8.508,8.121c-5.196,4.552-16.437,13.495-16.437,13.495s-3.701-3.704-13.052-14.096
						c-12.133-13.483-17.291-19.37-28.173-18.623c-4.534,10.639,4.053,29.366,4.053,29.366s14.857,15.036,30.702,28.422
						c5.194,4.387,11.601,4.264,18.902-3.374c10.988-11.494,15.823-20.985,22.808-29.843c1.163-1.475,3.564-3.453,8.142-4.882
						c1.793-0.56,3.763-1.326,4.925-1.752c1.407-0.517,3.823-1.839,5.085-2.647c2.668-1.709,2.761-1.497,6.096-5.668
						c0.411-0.515,2.025-2.771,1.71-3.35c-0.265-0.488-0.769-0.626-1.311-0.5c-0.773,0.179-1.253,0.761-2.645,1.623
						c1.355-1.41,3.273-3.488,3.94-5.84c0.1-0.353,0.158-0.888,0.048-1.238c-0.102-0.33-0.543-1.22-1.121-1.268
						c0,0,0.576-1.124,1.093-2.086C344.352,119.29,345.168,117.421,343.835,117.136z"/>
					<path style="fill:#F0997A;" d="M282.727,155.831c-3.843,3.37-6.889,8.782-6.547,12.119c-1.677-5.083,1.002-11.375,4.48-14.053
						L282.727,155.831z"/>
					<g>
						<path style="fill:#F0997A;" d="M314.908,139.38c-0.044-0.285-0.06-0.577-0.033-0.865c0.053-0.555,0.227-1.117,0.446-1.628
							c0.437-1.019,1.131-1.944,1.977-2.659c1.83-1.548,4.642-2.165,6.908-1.303c0.064,0.024,0.177,0.228,0.05,0.232
							c-2.288,0.072-4.56,0.257-6.397,1.795c-1.519,1.272-2.191,3.312-2.348,5.241c-0.015,0.181-0.206,0.169-0.271,0.023
							C315.103,139.917,314.959,139.715,314.908,139.38z"/>
						<path style="fill:#F0997A;" d="M328.731,128.162c2.101-1.212,4.066-2.795,5.966-4.302c1.821-1.445,3.546-3.029,5.28-4.575
							c0.021-0.019,0.064,0.033,0.049,0.053c-1.547,2.02-3.366,3.711-5.373,5.274c-1.848,1.439-3.842,2.475-5.888,3.59
							C328.745,128.213,328.713,128.172,328.731,128.162z"/>
						<path style="fill:#F0997A;" d="M329.75,132.154c2.101-1.212,4.066-2.795,5.966-4.302c0.73-0.579,1.443-1.179,2.146-1.79
							c0.69-0.599,1.413-1.185,2.036-1.851c0.192-0.206,0.385-0.412,0.577-0.618c0.247-0.264,0.458-0.545,0.751-0.765
							c0.3-0.225,0.64-0.395,1.001-0.496c0.034-0.01,0.088,0,0.079,0.034c-0.429,0.196-0.802,0.499-1.127,0.84
							c-0.217,0.228-0.415,0.474-0.605,0.726c-0.172,0.228-0.356,0.419-0.543,0.633c-0.58,0.661-1.194,1.29-1.835,1.892
							c-0.806,0.756-1.652,1.468-2.524,2.147c-1.848,1.439-3.842,2.475-5.888,3.591C329.763,132.206,329.732,132.165,329.75,132.154
							z"/>
						<g>
							<g>
								<g>
									<path style="fill:#F0997A;" d="M339.97,130.507c-1.178,0.939-2.354,1.809-3.637,2.543
										c-1.248,0.788-2.589,1.423-3.867,2.228c1.46-0.384,2.839-1.002,4.152-1.755
										C337.893,132.722,339.119,131.765,339.97,130.507z"/>
								</g>
							</g>
						</g>
					</g>
					<g>
						<path style="fill:#F0997A;" d="M307.673,134.215c1.307-1.387,2.285-2.607,3.207-4.632c0.34-0.869,0.884-1.774,1.314-2.575
							c0.418-0.813,1.061-1.671,1.585-2.433c1.038-1.526,2.181-3.028,3.231-4.576c1.066-1.539,2.123-3.086,3.109-4.682
							c-1.247,1.408-2.424,2.866-3.591,4.331c-1.166,1.468-2.309,2.934-3.392,4.493c-0.523,0.789-1.026,1.6-1.442,2.464
							c-0.415,0.872-0.884,1.688-1.243,2.598c-0.359,0.91-0.486,1.147-0.994,2.236C308.948,132.528,308.184,133.426,307.673,134.215
							z"/>
					</g>
				</g>
				<g>
					<path style="fill:#455A64;" d="M243.581,120.925c11.668,1.734,14.633,7.054,18.937,11.753
						c4.304,4.699,20.745,22.725,20.745,22.725s-6.053,4.912-7.015,12.177c-1.15,8.678,1.076,12.742,1.919,15.105
						c0,0-4.889-3.266-7.234-5.714c-2.346-2.448-22.784-20.565-22.784-20.565L243.581,120.925z"/>
					<path style="fill:#37474F;" d="M284.263,154.604l-0.669,0.535c0,0-6.584,6.239-6.48,14.687
						c0.104,8.448,2.391,13.135,2.391,13.135s1.168,0.464,1.698,0.576c-1.078,1.187-3.576,1.214-5.773-1.317
						c-2.197-2.53-4.133-3.786-6.417-4.867c-2.284-1.081-5.077-2.781-2.878-10.971c2.199-8.191,9.224-15.102,13.324-15.681
						c2.049-0.29,1.877,1.382,2.681,2.172C283.022,153.737,283.702,153.478,284.263,154.604z"/>
				</g>
			</g>
			<g id="Chest_00000116232961410025126980000012638119535887665307_">
				<path style="fill:#FAFAFA;" d="M219.669,225.604c-20.727-0.001-33.97-6.482-35.991-7.54c0.21-3.94,0.567-8.411,0.912-12.737
					c0.626-7.855,1.218-15.276,0.885-18.729c-0.641-6.647-2.115-13.095-3.416-18.785c-0.569-2.488-1.106-4.837-1.558-7.103
					c-5.838-29.321,3.849-33.915,3.947-33.958c8.833-3.316,20.083-6.967,21.108-7.299h23.922c4.741,0.444,9.303,1.081,13.896,1.942
					c5.948,4.448,13.953,13.315,15.344,38.644c0.946,17.24,1.737,50.108,1.792,52.405c-0.523,0.981-5.726,9.587-27.887,12.346
					c-4.34,0.54-8.698,0.814-12.951,0.814C219.671,225.604,219.67,225.604,219.669,225.604z"/>
				<path style="fill:#E0E0E0;" d="M229.432,119.954c4.715,0.441,9.211,1.066,13.736,1.912c5.858,4.411,13.68,13.214,15.051,38.202
					c0.931,16.954,1.712,49.037,1.788,52.254c-0.741,1.288-6.18,9.326-27.447,11.973c-4.32,0.538-8.657,0.81-12.892,0.81
					c-19.816,0-32.745-5.955-35.475-7.336c0.212-3.854,0.558-8.195,0.894-12.401c0.628-7.879,1.222-15.32,0.884-18.818
					c-0.644-6.68-2.122-13.145-3.427-18.85c-0.568-2.484-1.104-4.829-1.554-7.087c-5.631-28.28,3.249-33.195,3.646-33.397
					c8.656-3.249,19.596-6.808,20.997-7.262H229.432 M229.479,118.954h-24.001c0,0-11.872,3.826-21.226,7.339
					c0,0-10.256,4.301-4.24,34.515c1.517,7.617,4.057,16.41,4.966,25.838c0.517,5.359-1.242,20.649-1.815,31.709
					c0,0,13.641,7.749,36.508,7.749c4.057,0,8.402-0.244,13.015-0.818c24.039-2.992,28.329-12.729,28.329-12.729
					s-0.808-34.551-1.796-52.545c-1.349-24.573-8.965-34.13-15.637-39.087C239.31,120.121,234.682,119.439,229.479,118.954
					L229.479,118.954z"/>
			</g>
			<g id="Head_00000052806447017075745170000009817843805138977172_">
				<g id="XMLID_00000065792539540741082190000012752164360372097464_">
					<path style="fill:#263238;" d="M206.51,111.624c-2.525-5.156-5.453-8.156-10.475-15.021c-4.024-5.502-5.9-11.732-5.372-16.068
						c0.573-4.709,3.733-6.835,6.084-7.574c-0.143-4.574,1.456-8.444,4.271-11.356c3.335-3.45,8.352-4.802,13.147-5.206
						c3.36-0.284,6.757,0.293,10.106-0.096c3.349-0.389,6.894-2.086,8.016-5.266c0.586,2.144,0.536,4.457-0.141,6.573
						c0.108-0.338,2.43-0.372,2.769-0.378c0.842-0.016,1.737,0.023,2.56,0.195c1.505,0.315,2.961,1.333,3.681,2.698
						c0.81,1.535,0.614,3.62-0.665,4.793c0.945,1.206,2.499,1.851,4.031,1.874c1.532,0.022,3.034-0.53,4.319-1.366
						c0.274,1.039-0.429,2.085-1.229,2.803c-1.254,1.124-2.848,1.864-4.516,2.096c1.602,1.706,2.26,4.313,1.452,6.509
						c-0.808,2.197-3.148,3.791-5.475,3.537c0.594,0.065-0.484,2.262-0.677,2.448c-0.707,0.682-1.527,1.33-2.258,2.014
						c-2.159,2.02-4.322,4.035-6.489,6.045c-5.189,4.812-10.396,9.605-15.68,14.311C213.44,105.663,206.453,111.533,206.51,111.624z
						"/>
					<path style="fill:#FFBDA7;" d="M200.54,103.313c2.885,0.399,4.97-1.27,5.009-2.732l-0.076,19.66
						c6.873,11.216,34.228,12.499,24.067,0.835l-0.2-7.014c0,0,1.612-0.137,4.126-0.773c4.195-1.048,7.726-4.137,8.586-8.906
						c0.882-4.908,0.139-10.206-0.525-15.094c-0.385-2.835-0.857-5.659-1.39-8.469c-0.241-1.273-0.495-2.544-0.763-3.811
						c-0.294-1.392-0.694-2.603-1.294-3.902c-1.135-2.458-1.989-3.375-4.066-5.287c-1.5,1.493-2.505,3.941-4.333,5.008
						c-1.746,1.019-3.933,0.186-5.838-0.491c-2.548-0.904-5.242-1.483-7.954-1.486c-1.355-0.002-2.714,0.143-4.03,0.472
						c-1.114,0.278-2.709,0.578-2.836,1.969c-0.047,0.514,0.087,1.024,0.208,1.525c0.777,3.208,1.405,6.665-0.187,9.728
						c-0.251,0.484-0.548,0.949-0.731,1.463c-0.281,0.786-0.282,1.64-0.4,2.467c-0.119,0.826-0.397,1.693-1.064,2.196
						c-0.572,0.431-1.388,0.513-2.035,0.204c-0.77-0.369-1.207-1.176-1.701-1.872c-0.956-1.347-2.451-2.302-4.145-2.286
						c-2.438,0.022-3.987,0.966-5.09,2.721s-1.267,3.97-0.895,6.009C193.476,98.151,195.728,102.646,200.54,103.313z"/>
					<path style="fill:#F0997A;" d="M229.339,114.061c-5.585,0.452-10.601,0.186-14.018-0.932c-3.417-1.118-6.731-5.37-8.079-9.756
						c0.314,3.597,2.433,9.84,7.658,12.055c5.226,2.215,10.779,1.991,14.439,1.753V114.061z"/>
				</g>
				<path id="XMLID_00000031168427177199235230000005731375748067840667_" style="fill:#B16668;" d="M222.436,98.754l7.103,2.42
					c-0.633,2.034-2.736,3.141-4.699,2.473C222.879,102.979,221.803,100.787,222.436,98.754z"/>
				<path style="fill:#F28F8F;" d="M223.177,100.045c-0.305-0.069-0.607-0.092-0.904-0.094c0.003,1.633,0.99,3.158,2.568,3.695
					c0.396,0.135,0.795,0.18,1.189,0.177C226.339,102.159,225.092,100.483,223.177,100.045z"/>
				<path id="XMLID_00000175306616449293151160000007201645047591928475_" style="fill:#263238;" d="M237.911,81.882l-4.344-0.887
					c0.201-1.218,1.337-2.007,2.537-1.762C237.303,79.478,238.112,80.664,237.911,81.882z"/>
				<path id="XMLID_00000053545242037546533970000013942867553453521812_" style="fill:#263238;" d="M220.458,82.531l-3.959,1.994
					c-0.597-1.081-0.194-2.404,0.9-2.955C218.492,81.02,219.861,81.45,220.458,82.531z"/>
				<path style="fill:#263238;" d="M218.537,87.563c0.084,1.137,1.073,1.99,2.21,1.907c1.137-0.084,1.99-1.073,1.907-2.209
					c-0.084-1.137-1.073-1.991-2.21-1.907C219.307,85.437,218.454,86.426,218.537,87.563z"/>
				<path style="fill:#263238;" d="M232.874,85.945c0.084,1.137,1.073,1.991,2.21,1.907c1.137-0.084,1.99-1.073,1.907-2.209
					c-0.084-1.137-1.073-1.99-2.21-1.907C233.644,83.82,232.791,84.809,232.874,85.945z"/>
				<g>
					<g>
						<path style="fill:#F0997A;" d="M225.322,83.502c5.095-0.272,10.225,10.595,10.225,10.595l-7.61,2.888L225.322,83.502z"/>
					</g>
				</g>
			</g>
			<g id="Arm_00000121268647008519862480000009727227805507138208_">
				<path id="Thumb_00000096048026094829026180000006955537112420584360_" style="fill:#F0997A;" d="M215.551,183.546
					c2.099-0.574,8.394-8.213,9.31-10.154c0.916-1.941,2.415-4.183,3.856-5.929c1.441-1.747,2.044-3.882,1.414-4.755
					c-0.63-0.873-1.366-1.298-2.512-0.248c-1.146,1.05-2.323,2.279-5.411,3.728c-3.088,1.449-5.236,2.201-7.621,6.896
					C212.683,176.832,215.551,183.546,215.551,183.546z"/>
				<path style="fill:#BA68C8;" d="M366.202,82.481l-25.436-16.484c-1.774-1.064-4.237-0.6-5.501,1.038l-70.474,91.258
					l-28.327-21.595c-1.644-1.255-4.052-0.985-5.377,0.604l-18.748,21.724c-1.325,1.589-1.067,3.895,0.577,5.152l56.703,43.329
					c1.643,1.257,4.002,0.946,5.266-0.691c15.491-20.064,76.748-99.375,92.238-119.439
					C368.389,85.738,367.976,83.546,366.202,82.481z"/>
				<g>
					<path style="fill:#FFBDA7;" d="M233.748,174.275c1.648-0.265,2.473-1.507,1.609-2.558c-0.864-1.051-5.214-2.629-6.677-2.887
						c-1.464-0.257-3.241-0.392-5.828,0.029s-5.578,0.723-6.419,1.394c-1.036,0.826-1.522,2.311-2.701,4.519
						c-1.192,2.233-2.09,4.314-3.514,6.62c-1.291,2.09-2.629,2.823-6.993,2.622c-2.676-0.123-8.24-0.661-16.036-1.716
						c1.173-4.925,5.35-22.739,5.911-29.075c0.653-7.382-1.381-24.543-10.231-25.667c-8.597,4.783-10.703,8.973-12.669,19.075
						c-1.949,10.015-6.617,36.708-5.858,49.099c0.001,0.015-0.001,0.031,0,0.045c0.113,3.058,0.837,7.238,13.086,7.308
						c12.248,0.071,25.096-2.065,37.634-4.123c5.716-0.938,7.402-3.991,8.57-6.343c1.511-3.044,2.245-4.433,5.132-5.72
						c1.576-0.703,2.906-1.027,4.221-1.931c1.314-0.904,1.953-1.99,1.691-2.771c-0.262-0.781-1.292-0.541-1.292-0.541
						s0.157-0.288,0.102-0.932c-0.055-0.645-0.31-1.248-0.31-1.248s0.566-0.028,1.174-0.279c0.608-0.25,0.837-1.497,0.782-2.141
						c-0.055-0.645-1.727-1.643-2.635-1.83c-0.907-0.187-3.663-0.888-4.481-0.938c-0.818-0.05-6.613,0.337-6.613,0.337
						s4.42-0.935,6.177-1.119C229.336,173.323,232.302,174.508,233.748,174.275z"/>
					<g>
						<path style="fill:#F0997A;" d="M187.949,179.065c-7.538,0.217-11.952,2.054-14.103,4.895
							c3.412-1.944,8.302-2.084,13.343-1.662L187.949,179.065z"/>
					</g>
					<path style="fill:#F0997A;" d="M234.347,179.198c0.264-0.109,0.452-0.408,0.581-0.761c-0.007,0.006-0.477,0.344-1.76,0.421
						c-1.292,0.077-4.848-0.434-6.954-0.11c-2.107,0.323-4.39,0.937-5.367,0.671c0.672,0.302,3.024,0.204,5.509-0.089
						c2.485-0.292,6.817,0.146,6.817,0.146S233.739,179.448,234.347,179.198z"/>
					<path style="fill:#F0997A;" d="M230.989,182.595c-0.754,0.26-4.347,0.738-5.659,0.949c-1.312,0.211-3.491,0.369-3.491,0.369
						s1.693,0.229,2.929,0.082c1.236-0.147,4.831-0.633,6.176-1.005c1.345-0.372,2.009-0.869,2.437-1.334
						c0,0,0.156-0.288,0.102-0.932C233.102,181.772,231.744,182.335,230.989,182.595z"/>
				</g>
				<g>
					<path style="fill:#455A64;" d="M184.252,126.293c-6.814,3.474-12.293,6.846-14.366,17.821
						c-2.073,10.975-5.493,34.241-5.883,40.589c-0.39,6.348,0.312,10.525,0.312,10.525s5.413-13.309,22.874-12.929l1.422,0.19
						c0,0,3.751-19.153,4.875-24.752C194.608,152.138,196.575,132.765,184.252,126.293z"/>
					<path style="fill:#37474F;" d="M190.243,182.701l-1.633-0.212c0,0-9.047-0.753-15.297,4.059
						c-8.441,6.499-8.021,12.853-8.021,12.853s0.734,0.928,1.128,1.219c0,0-2.202,0.375-3.047-2.072
						c-0.786-2.276-0.068-5.186-0.386-7.646c-0.252-1.949-2.322-6.155,1.335-9.682c4.267-4.114,13.036-6.641,19.301-5.945
						c6.265,0.697,7.609,2.19,6.967,3.714C189.947,180.513,190.89,181.335,190.243,182.701z"/>
				</g>
			</g>
		</g>
	</g>
</g>
<g id="Like_Icon">
	<g id="Like_icon_00000047768844284260039870000016579038549621042853_">
		<g id="XMLID_260_">
			<g id="XMLID_00000121993679558921726670000009258433597680886714_">
				<path id="XMLID_00000102511494457288922280000005883651255772793487_" style="fill:#BA68C8;" d="M345.467,283.723
					c-5.745-2.811-14.867,3.772-14.867,6.509l-17.555-9.862c0-2.811,9.862-9.862,15.557-6.139L345.467,283.723z"/>
				<path id="XMLID_00000055706581278181809050000010654546181096533672_" style="opacity:0.3;fill:#FFFFFF;" d="M345.467,283.723
					c-5.745-2.811-14.867,3.772-14.867,6.509l-17.555-9.862c0-2.811,9.862-9.862,15.557-6.139L345.467,283.723z"/>
				<path id="XMLID_00000001663164292963246190000014448457944483200156_" style="fill:#BA68C8;" d="M390.98,299.231v0.024
					c-1.553-0.813-3.723-0.764-6.509,0.863l-33.531,19.379c1.553-7.766,2.022-14.448,1.134-20.636l14.892-8.629
					c3.082-1.8,5.4-1.652,7.002-0.567L390.98,299.231z"/>
				<path id="XMLID_00000118374380862236500680000013962013838168126390_" style="opacity:0.3;fill:#FFFFFF;" d="M390.98,299.231
					v0.024c-1.553-0.813-3.723-0.764-6.509,0.863l-33.531,19.379c1.553-7.766,2.022-14.448,1.134-20.636l14.892-8.629
					c3.082-1.8,5.4-1.652,7.002-0.567L390.98,299.231z"/>
			</g>
			<g id="XMLID_00000146487818775976209590000011283281836971334273_">
				<polygon id="XMLID_00000083084243103424572310000014778768352405469571_" style="fill:#BA68C8;" points="313.987,428.394 
					296.439,418.263 296.439,345.848 313.987,355.983 				"/>
			</g>
			<g id="XMLID_00000059995650381366383200000009026193701355988662_" style="opacity:0.2;">
				<polygon id="XMLID_00000046340643905562710590000016168790365150365346_" points="313.987,428.394 296.439,418.263 
					296.439,345.848 313.987,355.983 				"/>
			</g>
			<g id="XMLID_00000122722955325964399470000012604251997131090825_">
				<path id="XMLID_00000126282380704531539840000018278422967131631288_" style="fill:#BA68C8;" d="M330.6,316.194
					c-1.405,5.054-16.612,39.789-16.612,39.789l-17.549-10.135c0,0,15.177-34.486,16.656-39.516
					c1.405-5.03-0.049-22.609-0.049-25.962l17.555,9.862C330.6,293.61,332.079,311.189,330.6,316.194z"/>
			</g>
			<g>
				<path style="fill:#FFFFFF;" d="M314.487,356.087c0.627-1.435,8.043-18.419,12.75-29.815l0.038-0.092v-0.014
					c1.083-2.619,2.026-4.955,2.731-6.747c0.546-1.453,0.905-2.489,1.071-3.086c0.505-1.706,0.728-4.975,0.661-9.71
					c-0.025-2.164-0.104-4.665-0.244-7.645c-0.053-1.255-0.112-2.452-0.166-3.545l-0.09-1.845c-0.066-1.186-0.143-2.633-0.143-3.356
					c0-0.403,0.366-1.2,1.393-2.228c2.204-2.215,6.287-4.456,9.827-4.456c1.09,0,2.077,0.212,2.934,0.63
					c1.316,0.651,2.309,1.743,3.03,3.336c1.674,3.671,2.753,7.403,3.297,11.412c0.84,5.881,0.482,12.384-1.122,20.47l-0.215,1.082
					l34.48-19.932c1.484-0.868,2.85-1.307,4.061-1.307c0.715,0,1.374,0.155,1.96,0.461c2.22,1.117,3.211,4.205,3.211,6.772
					c0.045,6.879-4.042,12.569-5.296,14.149l-0.976,1.229l1.508-0.438c0.006-0.002,0.58-0.166,1.362-0.166
					c2.144,0,4.699,1.158,4.699,6.673c0,4.609-2.8,11.808-7.988,16.07l-0.488,0.401l0.503,0.383
					c0.016,0.012,2.013,1.681,2.013,7.545c0,3.945-4.618,13.678-9.162,16.309l-0.4,0.232l0.201,0.418
					c0.014,0.028,1.376,2.912,1.376,7.768c0.04,5.715-4.795,14.638-12.056,18.818c-6.712,3.884-48.624,28.117-54.763,31.666V356.087
					z"/>
				<path style="fill:#BA68C8;" d="M342.318,284.047c1.013,0,1.927,0.195,2.71,0.577c1.211,0.599,2.127,1.612,2.799,3.098
					c1.653,3.624,2.718,7.31,3.257,11.277c0.832,5.82,0.476,12.27-1.117,20.298l-0.43,2.165l1.911-1.105l33.53-19.382
					c1.404-0.821,2.685-1.237,3.806-1.237c0.633,0,1.215,0.136,1.742,0.412c2.023,1.018,2.929,3.909,2.929,6.329
					c0.045,6.887-4.314,12.73-5.188,13.832l-1.929,2.435l2.991-0.853c0.005-0.001,0.522-0.147,1.224-0.147
					c2.786,0,4.199,2.077,4.199,6.174c0,4.495-2.736,11.52-7.806,15.684l-0.997,0.787l1.006,0.766
					c0.018,0.016,1.836,1.618,1.836,7.163c0,3.842-4.492,13.318-8.913,15.876l-0.799,0.466l0.399,0.834
					c0.013,0.028,1.327,2.83,1.327,7.559c0.039,5.57-4.695,14.284-11.807,18.379c-6.481,3.751-45.803,26.486-54.011,31.232v-70.473
					c0.859-1.967,8.09-18.54,12.712-29.729l0.074-0.194c0.993-2.401,1.949-4.762,2.704-6.682c0.556-1.483,0.91-2.504,1.078-3.105
					c0.521-1.763,0.75-5.082,0.682-9.863c-0.024-2.159-0.104-4.666-0.243-7.66c-0.055-1.287-0.116-2.509-0.171-3.623
					c-0.031-0.628-0.06-1.221-0.087-1.78c-0.066-1.171-0.141-2.606-0.141-3.324c0-0.217,0.261-0.887,1.249-1.876
					C334.976,286.214,338.914,284.047,342.318,284.047 M342.317,283.047c-3.776,0-7.975,2.386-10.18,4.602
					c-0.955,0.956-1.54,1.897-1.54,2.581c0,0.656,0.057,1.854,0.142,3.38c0.071,1.526,0.171,3.38,0.257,5.39
					c0.114,2.453,0.214,5.105,0.242,7.629c0.057,4.021-0.086,7.686-0.642,9.569c-0.171,0.613-0.542,1.668-1.055,3.037
					c-0.713,1.811-1.668,4.178-2.767,6.831c0,0.014,0,0.014,0,0.014c-4.948,11.979-12.788,29.902-12.788,29.902v72.415
					c0,0,48.267-27.907,55.512-32.1c7.258-4.178,12.349-13.205,12.306-19.251c0-5.048-1.426-7.986-1.426-7.986
					c4.706-2.724,9.412-12.563,9.412-16.741c0-6.26-2.21-7.943-2.21-7.943c5.105-4.193,8.171-11.394,8.171-16.456
					c0-6.221-3.223-7.174-5.199-7.174c-0.873,0-1.503,0.186-1.503,0.186c1.811-2.282,5.447-7.943,5.405-14.46
					c0-2.767-1.069-6.004-3.479-7.216c-0.63-0.329-1.36-0.518-2.191-0.518c-1.22,0-2.657,0.407-4.311,1.374l-33.526,19.38
					c1.54-7.758,2.011-14.445,1.126-20.634c-0.542-3.993-1.626-7.8-3.337-11.551c-0.813-1.797-1.94-2.923-3.266-3.579
					C344.497,283.253,343.425,283.047,342.317,283.047L342.317,283.047z"/>
			</g>
		</g>
		<g>
			<path id="XMLID_00000108283715064592261820000000293851518086836369_" style="fill:#BA68C8;" d="M305.994,362.191
				c0-1.036-0.37-2.145-0.937-3.156c-0.592-0.986-1.381-1.874-2.268-2.391l-11.144-6.435c-1.775-1.011-4.611-1.011-6.386,0h-0.025
				l-17.776,10.281c-0.888,0.517-1.701,1.405-2.268,2.391c-0.567,1.011-0.937,2.145-0.937,3.156v76.9
				c0,2.046,1.43,4.536,3.205,5.547l11.144,6.435c0.888,0.518,2.046,0.764,3.205,0.764c1.159,0,2.293-0.246,3.18-0.739
				c0-0.025,0.025-0.025,0.025-0.025l17.826-10.306c1.775-1.011,3.205-3.477,3.205-5.523v-0.025L305.994,362.191z"/>
			<path id="XMLID_00000055701966451684636550000013659519109740273301_" style="opacity:0.2;" d="M281.807,372.472v83.212
				c-1.159,0-2.318-0.246-3.205-0.764l-11.144-6.435c-1.775-1.011-3.205-3.501-3.205-5.547v-76.9c0-1.011,0.37-2.145,0.937-3.156
				L281.807,372.472z"/>
			<path id="XMLID_00000172400123709718847740000005857686086710588818_" style="opacity:0.3;fill:#FFFFFF;" d="M305.057,359.035
				l-23.25,13.437l-16.618-9.591c0.567-0.986,1.381-1.874,2.268-2.392l17.776-10.281h0.025c1.775-1.011,4.611-1.011,6.386,0
				l11.144,6.435C303.676,357.161,304.465,358.049,305.057,359.035z"/>
		</g>
	</g>
</g>
<g id="Sparkles_00000127036913887542734330000018072419986419626429_">
	<g id="Sparkles">
		<path style="fill:#F0F0F0;" d="M428.698,237.587c0,0.176,0.132,0.324,0.307,0.344l5.111,0.565
			c0.493,0.053,0.882,0.452,0.927,0.945l0.588,6.521c0.015,0.179,0.165,0.315,0.344,0.315c0.179,0,0.329-0.136,0.344-0.315
			l0.588-6.519c0.044-0.494,0.434-0.893,0.927-0.946l5.11-0.565c0.175-0.02,0.307-0.168,0.307-0.344
			c0-0.176-0.132-0.324-0.307-0.344l-5.11-0.565c-0.493-0.053-0.882-0.452-0.927-0.945l-0.588-6.521
			c-0.015-0.179-0.165-0.315-0.344-0.315c-0.179,0-0.329,0.136-0.344,0.315l-0.588,6.519c-0.044,0.494-0.434,0.893-0.927,0.946
			l-5.111,0.565C428.829,237.263,428.698,237.411,428.698,237.587z"/>
		<path style="fill:#F0F0F0;" d="M367.857,42.348c0,0.176,0.132,0.324,0.307,0.344l5.111,0.565c0.493,0.053,0.882,0.452,0.927,0.945
			l0.588,6.521c0.015,0.179,0.165,0.315,0.344,0.315c0.179,0,0.329-0.136,0.344-0.315l0.588-6.519
			c0.044-0.494,0.434-0.892,0.927-0.946l5.11-0.565c0.175-0.02,0.307-0.168,0.307-0.344c0-0.177-0.132-0.324-0.307-0.344
			l-5.11-0.565c-0.493-0.053-0.882-0.452-0.927-0.945l-0.588-6.521c-0.015-0.179-0.165-0.315-0.344-0.315
			c-0.179,0-0.329,0.136-0.344,0.315l-0.588,6.519c-0.044,0.494-0.434,0.893-0.927,0.946l-5.111,0.565
			C367.989,42.024,367.857,42.171,367.857,42.348z"/>
		<path style="fill:#F0F0F0;" d="M413.949,151.824c0,0.176,0.132,0.324,0.307,0.344l5.111,0.565
			c0.493,0.053,0.883,0.452,0.927,0.945l0.588,6.521c0.015,0.179,0.165,0.315,0.344,0.315c0.179,0,0.329-0.136,0.344-0.315
			l0.588-6.519c0.044-0.494,0.434-0.893,0.927-0.946l5.11-0.565c0.175-0.02,0.307-0.168,0.307-0.344
			c0-0.176-0.132-0.324-0.307-0.344l-5.11-0.565c-0.493-0.053-0.882-0.452-0.927-0.945l-0.588-6.521
			c-0.015-0.179-0.165-0.315-0.344-0.315c-0.179,0-0.329,0.136-0.344,0.315l-0.588,6.519c-0.044,0.494-0.434,0.893-0.927,0.946
			l-5.111,0.565C414.081,151.5,413.949,151.647,413.949,151.824z"/>
		<path style="fill:#F0F0F0;" d="M423.02,104.976c0,0.223,0.167,0.409,0.387,0.434l6.449,0.713c0.622,0.067,1.113,0.57,1.169,1.192
			l0.742,8.227c0.019,0.226,0.208,0.397,0.434,0.397c0.226,0,0.415-0.171,0.434-0.397l0.742-8.225
			c0.056-0.623,0.548-1.126,1.169-1.193l6.447-0.713c0.221-0.026,0.387-0.212,0.387-0.434c0-0.223-0.166-0.409-0.387-0.434
			l-6.447-0.713c-0.622-0.067-1.112-0.57-1.169-1.192l-0.742-8.227c-0.019-0.226-0.208-0.397-0.434-0.397
			c-0.226,0-0.415,0.172-0.434,0.397l-0.742,8.225c-0.056,0.623-0.548,1.126-1.169,1.194l-6.449,0.713
			C423.186,104.567,423.02,104.753,423.02,104.976z"/>
		<path style="fill:#F0F0F0;" d="M379.936,208.029c0,0.185,0.14,0.34,0.323,0.361l7.876,0.87c0.839,0.093,1.503,0.771,1.578,1.611
			l0.905,10.049c0.017,0.187,0.174,0.331,0.362,0.331c0.188,0,0.345-0.143,0.362-0.331l0.905-10.049
			c0.075-0.84,0.74-1.517,1.579-1.611l7.875-0.87c0.184-0.02,0.323-0.176,0.323-0.361s-0.139-0.34-0.323-0.361l-7.875-0.87
			c-0.839-0.092-1.504-0.77-1.579-1.611l-0.905-10.048c-0.017-0.187-0.173-0.331-0.362-0.331c-0.188,0-0.344,0.144-0.362,0.331
			l-0.905,10.048c-0.075,0.84-0.739,1.518-1.578,1.611l-7.876,0.87C380.076,207.688,379.936,207.844,379.936,208.029z"/>
		<path style="fill:#F0F0F0;" d="M441.381,134.865c0,0.185,0.14,0.34,0.323,0.361l7.876,0.87c0.839,0.093,1.503,0.771,1.578,1.611
			l0.905,10.049c0.017,0.187,0.174,0.331,0.361,0.331c0.188,0,0.345-0.143,0.362-0.331l0.905-10.049
			c0.075-0.84,0.74-1.517,1.579-1.611l7.875-0.87c0.184-0.02,0.323-0.176,0.323-0.361s-0.139-0.34-0.323-0.361l-7.875-0.87
			c-0.839-0.092-1.504-0.77-1.579-1.61l-0.905-10.048c-0.017-0.187-0.174-0.331-0.362-0.331c-0.188,0-0.344,0.144-0.361,0.331
			l-0.905,10.048c-0.075,0.84-0.739,1.518-1.578,1.61l-7.876,0.87C441.521,134.525,441.381,134.68,441.381,134.865z"/>
		<path style="fill:#F0F0F0;" d="M52.149,249.893l-5.111-0.565c-0.493-0.053-0.882-0.452-0.927-0.946l-0.588-6.519
			c-0.015-0.179-0.165-0.315-0.344-0.315c-0.179,0-0.329,0.136-0.344,0.315l-0.588,6.521c-0.045,0.493-0.434,0.891-0.927,0.945
			l-5.11,0.565c-0.175,0.02-0.307,0.168-0.307,0.344c0,0.176,0.132,0.324,0.307,0.344l5.11,0.565
			c0.493,0.053,0.883,0.452,0.927,0.946l0.588,6.519c0.015,0.179,0.165,0.315,0.344,0.315c0.179,0,0.329-0.136,0.344-0.315
			l0.588-6.521c0.044-0.493,0.434-0.891,0.927-0.945l5.111-0.565c0.175-0.02,0.307-0.168,0.307-0.344
			C52.456,250.061,52.324,249.913,52.149,249.893z"/>
		<path style="fill:#F0F0F0;" d="M108.386,47.119l-5.111-0.565c-0.493-0.053-0.882-0.452-0.927-0.946l-0.588-6.519
			c-0.015-0.179-0.165-0.315-0.344-0.315c-0.179,0-0.329,0.136-0.344,0.315l-0.588,6.521c-0.045,0.493-0.434,0.891-0.927,0.945
			l-5.11,0.565c-0.175,0.02-0.307,0.167-0.307,0.344c0,0.176,0.132,0.324,0.307,0.344l5.11,0.565
			c0.493,0.053,0.883,0.452,0.927,0.946l0.588,6.519c0.015,0.179,0.165,0.315,0.344,0.315c0.179,0,0.329-0.136,0.344-0.315
			l0.588-6.521c0.044-0.493,0.434-0.891,0.927-0.945l5.111-0.565c0.175-0.02,0.307-0.168,0.307-0.344
			C108.693,47.286,108.562,47.139,108.386,47.119z"/>
		<path style="fill:#F0F0F0;" d="M48.906,183.971l-5.111-0.565c-0.493-0.053-0.882-0.452-0.927-0.946l-0.588-6.519
			c-0.015-0.179-0.165-0.315-0.344-0.315c-0.179,0-0.329,0.136-0.344,0.315l-0.588,6.521c-0.045,0.493-0.434,0.891-0.927,0.945
			l-5.11,0.565c-0.175,0.02-0.307,0.168-0.307,0.344c0,0.176,0.132,0.324,0.307,0.344l5.11,0.565
			c0.493,0.053,0.883,0.452,0.927,0.946l0.588,6.519c0.015,0.179,0.165,0.315,0.344,0.315c0.179,0,0.329-0.136,0.344-0.315
			l0.588-6.521c0.044-0.493,0.434-0.891,0.927-0.945l5.111-0.565c0.175-0.02,0.307-0.168,0.307-0.344
			C49.213,184.138,49.081,183.991,48.906,183.971z"/>
		<path style="fill:#F0F0F0;" d="M47.255,81.448l-6.449-0.713c-0.622-0.067-1.113-0.57-1.169-1.194l-0.742-8.225
			c-0.019-0.226-0.208-0.397-0.434-0.397c-0.226,0-0.415,0.172-0.434,0.397l-0.742,8.227c-0.057,0.621-0.548,1.125-1.17,1.192
			l-6.447,0.713c-0.221,0.026-0.387,0.211-0.387,0.434c0,0.222,0.166,0.409,0.387,0.434l6.447,0.713
			c0.622,0.067,1.114,0.57,1.17,1.193l0.742,8.225c0.019,0.226,0.208,0.397,0.434,0.397c0.226,0,0.415-0.171,0.434-0.397
			l0.742-8.227c0.056-0.621,0.548-1.124,1.169-1.192l6.449-0.713c0.221-0.025,0.388-0.212,0.388-0.434
			C47.643,81.659,47.476,81.474,47.255,81.448z"/>
		<path style="fill:#F0F0F0;" d="M90.126,222.641l-7.876-0.87c-0.839-0.092-1.503-0.77-1.578-1.611l-0.905-10.048
			c-0.017-0.187-0.174-0.331-0.362-0.331c-0.188,0-0.345,0.143-0.362,0.331l-0.905,10.048c-0.075,0.84-0.74,1.518-1.579,1.611
			l-7.875,0.87c-0.184,0.02-0.323,0.176-0.323,0.361s0.139,0.34,0.323,0.361l7.875,0.87c0.839,0.093,1.504,0.771,1.579,1.611
			l0.905,10.049c0.017,0.187,0.174,0.33,0.362,0.33c0.188,0,0.344-0.143,0.362-0.33l0.905-10.049
			c0.075-0.84,0.739-1.517,1.578-1.611l7.876-0.87c0.184-0.02,0.323-0.176,0.323-0.361S90.309,222.661,90.126,222.641z"/>
		<path style="fill:#F0F0F0;" d="M79.082,124.406l-7.876-0.87c-0.839-0.092-1.503-0.77-1.578-1.611l-0.905-10.048
			c-0.017-0.187-0.174-0.331-0.362-0.331c-0.188,0-0.345,0.144-0.362,0.331l-0.905,10.048c-0.075,0.84-0.74,1.518-1.579,1.611
			l-7.875,0.87c-0.184,0.02-0.323,0.176-0.323,0.361s0.139,0.34,0.323,0.361l7.875,0.87c0.839,0.093,1.504,0.771,1.579,1.611
			l0.905,10.049c0.017,0.187,0.174,0.331,0.362,0.331c0.188,0,0.344-0.143,0.362-0.331l0.905-10.049
			c0.075-0.84,0.739-1.517,1.578-1.611l7.876-0.87c0.184-0.02,0.324-0.176,0.324-0.361S79.266,124.426,79.082,124.406z"/>
	</g>
</g>
</svg>
